<svg id="Layer_4" viewBox="0 0 24 24" xmlns="http://www.w3.org/2000/svg" xmlns:xlink="http://www.w3.org/1999/xlink" data-name="Layer 4"><linearGradient id="New_Gradient_Swatch" gradientUnits="userSpaceOnUse" x2="24" y1="12" y2="12"><stop offset="0" stop-color="#87f1fc"></stop><stop offset=".2557" stop-color="#7fd4fb"></stop><stop offset=".5295" stop-color="#78bcfb"></stop><stop offset=".7844" stop-color="#74aefa"></stop><stop offset="1" stop-color="#73a9fa"></stop></linearGradient><path d="m20.07.5361a61.0012 61.0012 0 0 0 -16.1018-.005 3.9793 3.9793 0 0 0 -3.4321 3.3989 61.0009 61.0009 0 0 0 -.0053 16.1 3.9949 3.9949 0 0 0 3.439 3.44 60.9878 60.9878 0 0 0 7.9714.53 60.9971 60.9971 0 0 0 8.09-.5309 3.98 3.98 0 0 0 3.433-3.3993 61.0038 61.0038 0 0 0 .5358-8.0698 60.9876 60.9876 0 0 0 -.5311-8.0318 3.9792 3.9792 0 0 0 -3.3989-3.4321zm-8.07 3.9639a3.5 3.5 0 1 1 -3.5 3.5 3.5042 3.5042 0 0 1 3.5-3.5zm6.9014 14.4233a1.4915 1.4915 0 0 1 -1.1822.5767h-11.4384a1.5 1.5 0 0 1 -1.4551-1.8638l.1992-.7964a5.73 5.73 0 0 1 5.5586-4.34h2.833a5.73 5.73 0 0 1 5.5586 4.34l.1992.7954a1.4923 1.4923 0 0 1 -.2729 1.2881zm-9.4014-10.9233a2.5 2.5 0 1 1 2.5 2.5 2.503 2.503 0 0 1 -2.5-2.5zm8.7046 9.8784a.5006.5006 0 0 1 -.4854.6216h-11.4384a.5.5 0 0 1 -.4854-.6211l.1992-.7964a4.7309 4.7309 0 0 1 4.5889-3.5825h2.833a4.7306 4.7306 0 0 1 4.5889 3.583z" fill="url(#New_Gradient_Swatch)"></path></svg>
